<?xml version="1.0" encoding="UTF-8"?>
<svg width="250px" height="262px" viewBox="0 0 250 262" version="1.1" xmlns="http://www.w3.org/2000/svg" xmlns:xlink="http://www.w3.org/1999/xlink">
    <!-- Generator: Sketch 52.3 (67297) - http://www.bohemiancoding.com/sketch -->
    <title>broadcast</title>
    <desc>Created with Sketch.</desc>
    <g id="Page-1" stroke="none" stroke-width="1" fill="none" fill-rule="evenodd">
        <polygon id="Rectangle" fill="#E73D24" transform="translate(136.254834, 80.254834) rotate(45.000000) translate(-136.254834, -80.254834) " points="104.254834 48.254834 168.254834 112.254834 104.254834 112.254834"></polygon>
        <polygon id="Rectangle" fill="#1D81C4" transform="translate(181.941125, 136.941125) rotate(45.000000) translate(-181.941125, -136.941125) " points="157.941125 112.941125 205.941125 160.941125 157.941125 160.941125"></polygon>
        <polygon id="Rectangle" fill="#36B4E7" transform="translate(206.455844, 170.455844) rotate(45.000000) translate(-206.455844, -170.455844) " points="188.455844 152.455844 224.455844 188.455844 188.455844 188.455844"></polygon>
        <polygon id="Rectangle" fill="#A02A64" transform="translate(90.941125, 45.941125) rotate(45.000000) translate(-90.941125, -45.941125) " points="66.9411255 21.9411255 114.941125 69.9411255 66.9411255 69.9411255"></polygon>
        <polygon id="Rectangle" fill="#B3276B" transform="translate(39.970563, 79.970563) rotate(45.000000) translate(-39.970563, -79.970563) " points="27.9705627 67.9705627 51.9705627 91.9705627 27.9705627 91.9705627"></polygon>
        <polygon id="Rectangle" fill="#B3276B" transform="translate(16.970563, 102.970563) rotate(45.000000) translate(-16.970563, -102.970563) " points="4.97056275 90.9705627 28.9705627 114.970563 4.97056275 114.970563"></polygon>
        <polygon id="Rectangle" fill="#EE851C" transform="translate(90.970563, 186.970563) rotate(45.000000) translate(-90.970563, -186.970563) " points="78.9705627 174.970563 102.970563 198.970563 78.9705627 198.970563"></polygon>
        <polygon id="Rectangle" fill="#B1286B" transform="translate(73.970563, 169.970563) rotate(45.000000) translate(-73.970563, -169.970563) " points="61.9705627 157.970563 85.9705627 181.970563 61.9705627 181.970563"></polygon>
        <polygon id="Rectangle" fill="#2357A2" transform="translate(147.941125, 102.941125) scale(-1, 1) rotate(45.000000) translate(-147.941125, -102.941125) " points="123.941125 78.9411255 171.941125 126.941125 123.941125 126.941125"></polygon>
        <polygon id="Rectangle" fill="#902A5A" transform="translate(56.941125, 79.941125) scale(-1, 1) rotate(45.000000) translate(-56.941125, -79.941125) " points="32.9411255 55.9411255 80.9411255 103.941125 32.9411255 103.941125"></polygon>
        <polygon id="Rectangle" fill="#CB2526" transform="translate(102.941125, 33.941125) scale(-1, 1) rotate(45.000000) translate(-102.941125, -33.941125) " points="78.9411255 9.9411255 126.941125 57.9411255 78.9411255 57.9411255"></polygon>
        <polygon id="Rectangle" fill="#F3A30C" transform="translate(91.000000, 170.509668) scale(-1, 1) rotate(45.000000) translate(-91.000000, -170.509668) " points="27 106.509668 155 234.509668 27 234.509668"></polygon>
        <polygon id="Rectangle" fill="#1E6CB1" transform="translate(181.509668, 102.137085) scale(-1, 1) rotate(45.000000) translate(-181.509668, -102.137085) " points="133.509668 54.137085 229.509668 150.137085 133.509668 150.137085"></polygon>
        <polygon id="Rectangle" fill="#B3296B" transform="translate(91.254834, 125.254834) rotate(45.000000) translate(-91.254834, -125.254834) " points="59.254834 93.254834 123.254834 157.254834 59.254834 157.254834"></polygon>
        <polygon id="Rectangle" fill="#EA5F24" transform="translate(181.597980, 209.597980) rotate(45.000000) translate(-181.597980, -209.597980) " points="153.59798 181.59798 209.59798 237.59798 153.59798 237.59798"></polygon>
    </g>
</svg>